#define hskp.xbm_width 64
#define hskp.xbm_height 64
static char hskp.xbm_bits[] = {
   0x00, 0x00, 0x00, 0x00, 0x00, 0x00, 0x00, 0x00, 0x00, 0x00, 0x00, 0x00,
   0x00, 0x00, 0x00, 0x00, 0x00, 0x00, 0x00, 0x00, 0x00, 0x00, 0x00, 0x00,
   0x00, 0x00, 0x00, 0x00, 0x00, 0x00, 0x00, 0x00, 0x03, 0x00, 0x00, 0x00,
   0x00, 0x00, 0x00, 0x00, 0x07, 0x00, 0x00, 0x00, 0x00, 0xf0, 0xff, 0x01,
   0x0e, 0x00, 0x00, 0x00, 0x00, 0xff, 0xff, 0x1f, 0x0c, 0x00, 0x00, 0x00,
   0x80, 0xff, 0xff, 0x3f, 0x18, 0x00, 0x00, 0x00, 0x80, 0xff, 0xff, 0x3f,
   0x30, 0x00, 0x00, 0x00, 0x80, 0xff, 0xff, 0x3f, 0x70, 0x00, 0x00, 0x00,
   0x80, 0xf0, 0xff, 0x21, 0xe0, 0x00, 0x00, 0x00, 0x80, 0x00, 0x00, 0x20,
   0xc0, 0x00, 0x00, 0x00, 0x80, 0x00, 0x00, 0x20, 0x80, 0x01, 0x00, 0x00,
   0x80, 0x00, 0x00, 0x20, 0x80, 0x03, 0x00, 0x00, 0x80, 0x00, 0x00, 0x20,
   0x00, 0x07, 0x00, 0x00, 0x80, 0x00, 0x00, 0x20, 0x00, 0x06, 0x00, 0x00,
   0x80, 0x70, 0x70, 0x20, 0x00, 0x0c, 0x00, 0x00, 0x80, 0x90, 0x90, 0x20,
   0x00, 0x7c, 0x00, 0x00, 0x80, 0x90, 0x90, 0x20, 0x00, 0xd8, 0x00, 0x10,
   0x80, 0x70, 0x70, 0x20, 0x00, 0xa8, 0x01, 0x11, 0x80, 0x90, 0x90, 0x20,
   0x00, 0xfc, 0x83, 0x12, 0x80, 0x90, 0x90, 0x20, 0x00, 0xd8, 0xa6, 0x02,
   0x80, 0x90, 0x90, 0x20, 0x00, 0xb8, 0x26, 0x01, 0x80, 0x70, 0x70, 0x20,
   0x00, 0x68, 0x25, 0x08, 0x81, 0x00, 0x00, 0x20, 0x00, 0xf0, 0x06, 0x94,
   0x83, 0x00, 0x00, 0x20, 0x00, 0xf8, 0x03, 0x54, 0x86, 0x00, 0x00, 0x20,
   0x00, 0xe0, 0x89, 0x28, 0x84, 0x00, 0x00, 0x20, 0x00, 0x40, 0x48, 0x21,
   0x84, 0x00, 0x00, 0x20, 0x00, 0x00, 0x48, 0x11, 0x8c, 0x00, 0x00, 0x20,
   0x00, 0x00, 0x80, 0x18, 0xbf, 0x0f, 0x00, 0x3e, 0x00, 0x00, 0x00, 0xf0,
   0x31, 0xf0, 0xff, 0x01, 0x00, 0x00, 0x00, 0x00, 0x00, 0x00, 0x00, 0x00,
   0x00, 0x00, 0x00, 0xbf, 0x01, 0x00, 0x00, 0x00, 0x00, 0x00, 0x00, 0xad,
   0x01, 0x00, 0x00, 0x00, 0x00, 0x00, 0x00, 0x8c, 0xe7, 0x00, 0x00, 0x00,
   0x00, 0x00, 0x00, 0x8c, 0xb5, 0x00, 0x00, 0x00, 0x00, 0x00, 0x00, 0x8c,
   0xf5, 0x00, 0x00, 0x00, 0x00, 0x00, 0x00, 0x8c, 0x35, 0x00, 0x00, 0x00,
   0x00, 0x00, 0x00, 0x9e, 0xed, 0x00, 0x00, 0x00, 0x00, 0x00, 0x00, 0x00,
   0x00, 0x00, 0x00, 0x00, 0x00, 0x00, 0x00, 0x00, 0x00, 0x00, 0x00, 0x00,
   0x00, 0x00, 0xe0, 0x03, 0x00, 0x0e, 0x00, 0x00, 0x00, 0x00, 0x30, 0x03,
   0x00, 0x0c, 0x00, 0x00, 0x00, 0x00, 0x30, 0x70, 0x1c, 0x0f, 0x00, 0x00,
   0x00, 0x00, 0xb0, 0xdb, 0xb6, 0x0d, 0x00, 0x00, 0x00, 0x00, 0x30, 0xdb,
   0xb6, 0x0d, 0x00, 0x00, 0x00, 0x00, 0x30, 0xdb, 0xb6, 0x0d, 0x00, 0x00,
   0x00, 0x00, 0xe0, 0x71, 0x1c, 0x1b, 0x00, 0x00, 0x00, 0x00, 0x00, 0x00,
   0x00, 0x00, 0x00, 0x00, 0x00, 0x00, 0x00, 0x00, 0x00, 0x00, 0x00, 0x00,
   0x00, 0x00, 0x00, 0x00, 0x00, 0x00, 0x00, 0x00, 0x38, 0x07, 0x00, 0x00,
   0x03, 0x00, 0x00, 0x00, 0x30, 0x03, 0x00, 0x00, 0x03, 0x00, 0x00, 0x00,
   0x30, 0xe3, 0x6c, 0x73, 0xdb, 0xb9, 0xe3, 0x16, 0xf0, 0xb3, 0xad, 0x59,
   0x6b, 0xad, 0xb5, 0x1e, 0x30, 0xb3, 0xad, 0x7b, 0xe7, 0xbd, 0xf5, 0x06,
   0x30, 0xb3, 0x2d, 0x1b, 0x6b, 0x8c, 0x35, 0x06, 0x38, 0xe7, 0xb8, 0x73,
   0xdb, 0xb9, 0xe3, 0x06, 0x00, 0x00, 0x00, 0x00, 0x00, 0x80, 0x01, 0x00,
   0x00, 0x00, 0x00, 0x00, 0x00, 0x80, 0x03, 0x00, 0x00, 0x00, 0x00, 0x00,
   0x00, 0x00, 0x00, 0x00, 0x00, 0x00, 0x00, 0x00, 0x00, 0x00, 0x00, 0x00,
   0x00, 0x00, 0x00, 0x00, 0x00, 0x00, 0x00, 0x00};
