#define hskperr.xbm_width 64
#define hskperr.xbm_height 64
static char hskperr.xbm_bits[] = {
   0x00, 0x00, 0x00, 0x00, 0x00, 0x00, 0x00, 0x00, 0x00, 0x00, 0x00, 0x00,
   0x00, 0x00, 0x00, 0x00, 0x00, 0x00, 0x00, 0x00, 0x00, 0x00, 0x00, 0x00,
   0x00, 0x00, 0x00, 0x00, 0x00, 0x00, 0x00, 0x00, 0x03, 0x00, 0x00, 0x00,
   0x00, 0x00, 0x00, 0x00, 0x07, 0x00, 0x00, 0x00, 0x00, 0x00, 0x00, 0x00,
   0x0e, 0x00, 0x00, 0x00, 0x00, 0x00, 0x00, 0x00, 0x0c, 0x00, 0x00, 0x00,
   0x00, 0x00, 0x00, 0x00, 0x18, 0x00, 0x00, 0x00, 0x00, 0x00, 0x00, 0x00,
   0x30, 0x00, 0x00, 0x00, 0x80, 0xff, 0xff, 0x7f, 0x70, 0x00, 0x00, 0x00,
   0xc0, 0x03, 0x00, 0x40, 0xe0, 0x00, 0x00, 0x00, 0xc0, 0x03, 0x00, 0x40,
   0xc0, 0x00, 0x00, 0x00, 0xc0, 0x03, 0x00, 0x40, 0x80, 0x01, 0x00, 0x00,
   0xc0, 0x03, 0x00, 0x40, 0x80, 0x03, 0x00, 0x00, 0xe0, 0x07, 0x00, 0x80,
   0x00, 0x07, 0x00, 0x00, 0xe0, 0x07, 0x76, 0x80, 0x00, 0x06, 0x00, 0x00,
   0xe0, 0x07, 0x89, 0x80, 0x00, 0x0c, 0x00, 0x00, 0xe0, 0x07, 0x89, 0x80,
   0x00, 0x7c, 0x00, 0x00, 0xe1, 0x07, 0xff, 0x80, 0x00, 0xd8, 0x00, 0x10,
   0xe1, 0x07, 0x00, 0x80, 0x00, 0xa8, 0x01, 0x11, 0xe1, 0x07, 0x00, 0x80,
   0x00, 0xfc, 0x83, 0x12, 0xe0, 0x07, 0x00, 0x80, 0x00, 0xd8, 0xa6, 0x02,
   0xe0, 0x07, 0x00, 0x80, 0x00, 0xb8, 0x26, 0x01, 0xe2, 0x07, 0x76, 0x80,
   0x00, 0x68, 0x25, 0x08, 0xe2, 0x07, 0x89, 0x80, 0x00, 0xf0, 0x06, 0x14,
   0xe2, 0x07, 0x89, 0x80, 0x00, 0xf8, 0x03, 0x14, 0xe0, 0x07, 0xff, 0x80,
   0x00, 0xe0, 0x89, 0x08, 0xc9, 0x03, 0x00, 0x40, 0x00, 0x40, 0x48, 0xa1,
   0xca, 0x03, 0x00, 0x40, 0x00, 0x00, 0x48, 0xa1, 0xca, 0x03, 0x00, 0x40,
   0x00, 0x00, 0x80, 0x20, 0xc1, 0x03, 0x00, 0x40, 0x00, 0x00, 0x00, 0x00,
   0x80, 0xff, 0xff, 0x7f, 0x00, 0x00, 0x00, 0x00, 0x00, 0x00, 0x00, 0x00,
   0x00, 0x00, 0x00, 0xbf, 0x01, 0x00, 0x00, 0x00, 0x00, 0x00, 0x00, 0xad,
   0x01, 0x00, 0x00, 0x00, 0x00, 0x00, 0x00, 0x8c, 0xe7, 0x00, 0x00, 0x00,
   0x00, 0x00, 0x00, 0x8c, 0xb5, 0x00, 0x00, 0x00, 0x00, 0x00, 0x00, 0x8c,
   0xf5, 0x00, 0x00, 0x00, 0x00, 0x00, 0x00, 0x8c, 0x35, 0x00, 0x00, 0x00,
   0x00, 0x00, 0x00, 0x9e, 0xed, 0x00, 0x00, 0x00, 0x00, 0x00, 0x00, 0x00,
   0x00, 0x00, 0x00, 0x00, 0x70, 0x07, 0x08, 0x1e, 0x00, 0x00, 0x00, 0x0e,
   0x60, 0x02, 0x0c, 0x13, 0x00, 0x00, 0x00, 0x0c, 0xe0, 0xe2, 0x1c, 0x87,
   0x83, 0x77, 0x1c, 0x0f, 0xa0, 0xb2, 0x0d, 0xce, 0xc6, 0xda, 0xb6, 0x0d,
   0xa0, 0xb3, 0x0d, 0xdc, 0xc6, 0xda, 0xb6, 0x0d, 0x20, 0xb3, 0x0d, 0xd9,
   0x86, 0xdb, 0xb6, 0x0d, 0x70, 0xe2, 0x18, 0x8f, 0xc3, 0x70, 0x1c, 0x1b,
   0x00, 0x00, 0x00, 0x00, 0xc0, 0x03, 0x00, 0x00, 0x00, 0x00, 0x00, 0x00,
   0x40, 0x02, 0x00, 0x00, 0x00, 0x00, 0x00, 0x00, 0xc0, 0x03, 0x00, 0x00,
   0x00, 0x00, 0x00, 0x00, 0x00, 0x00, 0x00, 0x00, 0x38, 0x07, 0x00, 0x00,
   0x03, 0x00, 0x00, 0x00, 0x30, 0x03, 0x00, 0x00, 0x03, 0x00, 0x00, 0x00,
   0x30, 0xe3, 0x6c, 0x73, 0xdb, 0xb9, 0xe3, 0x16, 0xf0, 0xb3, 0xad, 0x59,
   0x6b, 0xad, 0xb5, 0x1e, 0x30, 0xb3, 0xad, 0x7b, 0xe7, 0xbd, 0xf5, 0x06,
   0x30, 0xb3, 0x2d, 0x1b, 0x6b, 0x8c, 0x35, 0x06, 0x38, 0xe7, 0xb8, 0x73,
   0xdb, 0xb9, 0xe3, 0x06, 0x00, 0x00, 0x00, 0x00, 0x00, 0x80, 0x01, 0x00,
   0x00, 0x00, 0x00, 0x00, 0x00, 0x80, 0x03, 0x00, 0x00, 0x00, 0x00, 0x00,
   0x00, 0x00, 0x00, 0x00, 0x00, 0x00, 0x00, 0x00, 0x00, 0x00, 0x00, 0x00,
   0x00, 0x00, 0x00, 0x00, 0x00, 0x00, 0x00, 0x00};
