#define master.xbm_width 64
#define master.xbm_height 64
static char master.xbm_bits[] = {
   0x00, 0x00, 0x00, 0x00, 0x00, 0x00, 0x00, 0x00, 0x00, 0x00, 0x00, 0x00,
   0x00, 0x00, 0x00, 0x00, 0x00, 0x00, 0x00, 0x00, 0x00, 0x00, 0x00, 0x00,
   0x00, 0xf0, 0x1f, 0xf0, 0x1f, 0xf0, 0x1f, 0x00, 0x00, 0xf8, 0x3f, 0xf8,
   0x3f, 0xf8, 0x3f, 0x00, 0x00, 0x18, 0x30, 0x18, 0x30, 0x18, 0x30, 0x00,
   0x00, 0x18, 0x30, 0x18, 0x30, 0x18, 0x30, 0x00, 0x00, 0x18, 0x30, 0x18,
   0x30, 0x18, 0x30, 0x00, 0x00, 0x18, 0x30, 0x18, 0x30, 0x18, 0x30, 0x00,
   0x00, 0x18, 0xf0, 0x18, 0x30, 0x18, 0x30, 0x00, 0x00, 0x18, 0x70, 0x18,
   0x30, 0x18, 0x30, 0x00, 0x00, 0xf8, 0xff, 0xf8, 0x3f, 0xf8, 0x3f, 0x00,
   0x00, 0xf0, 0x9f, 0xf0, 0x1f, 0xfc, 0x1f, 0x00, 0x00, 0x00, 0x00, 0x01,
   0x01, 0x06, 0x00, 0x00, 0x00, 0x00, 0x00, 0x81, 0x00, 0x02, 0x00, 0x00,
   0x00, 0x00, 0x00, 0x8e, 0x00, 0x03, 0x00, 0x00, 0x00, 0xf0, 0x1f, 0xf0,
   0x9f, 0xf1, 0x1f, 0x00, 0x00, 0xf8, 0x3f, 0xf8, 0xff, 0xf8, 0x3f, 0x00,
   0x00, 0x18, 0x30, 0xf8, 0x7f, 0x18, 0x30, 0x00, 0x00, 0x18, 0x30, 0xff,
   0x3f, 0x18, 0x30, 0x00, 0x00, 0x18, 0xf0, 0xfc, 0x7f, 0x1d, 0x30, 0x00,
   0x00, 0x18, 0x70, 0xf8, 0xbf, 0x1a, 0x30, 0x00, 0x00, 0x18, 0x30, 0xf8,
   0x3f, 0x18, 0x30, 0x00, 0x00, 0x18, 0x30, 0xf8, 0x3f, 0x18, 0x30, 0x00,
   0x00, 0xf8, 0x3f, 0xf8, 0x3f, 0xf8, 0x3f, 0x00, 0x00, 0xf0, 0x1f, 0xf0,
   0x1f, 0xf0, 0x1f, 0x00, 0x00, 0x00, 0x00, 0x40, 0x00, 0x00, 0x00, 0x00,
   0x00, 0x00, 0x00, 0xf0, 0x1f, 0x00, 0x00, 0x00, 0x00, 0x00, 0x00, 0xf8,
   0x3f, 0x00, 0x00, 0x00, 0x00, 0x00, 0x00, 0x18, 0x30, 0x00, 0x00, 0x00,
   0x00, 0x00, 0x00, 0x18, 0x30, 0x00, 0x00, 0x00, 0x00, 0x00, 0x00, 0x18,
   0x30, 0x00, 0x00, 0x00, 0x00, 0x00, 0x00, 0x18, 0x30, 0x00, 0x00, 0x00,
   0x00, 0x00, 0x00, 0x18, 0x30, 0x00, 0x00, 0x00, 0x00, 0x00, 0x00, 0x18,
   0x30, 0x00, 0x00, 0x00, 0x00, 0x00, 0x00, 0xf8, 0x3f, 0x00, 0x00, 0x00,
   0x00, 0x00, 0x00, 0xf0, 0x1f, 0x00, 0x00, 0x00, 0x00, 0x00, 0x00, 0x00,
   0x00, 0x00, 0x00, 0x00, 0x00, 0x00, 0x00, 0x00, 0x00, 0x00, 0x00, 0x00,
   0x00, 0x00, 0xe0, 0xff, 0x00, 0x00, 0x00, 0x00, 0x00, 0x00, 0x20, 0xd3,
   0x00, 0x00, 0x00, 0x00, 0x00, 0x00, 0x20, 0xd3, 0x00, 0x00, 0x00, 0x00,
   0x00, 0x00, 0x00, 0xc3, 0xe3, 0x01, 0x00, 0x00, 0x00, 0x00, 0x00, 0xc3,
   0x36, 0x03, 0x00, 0x00, 0x00, 0x00, 0x00, 0xc3, 0xf6, 0x03, 0x00, 0x00,
   0x00, 0x00, 0x00, 0xc3, 0x36, 0x00, 0x00, 0x00, 0x00, 0x00, 0x00, 0xc3,
   0x76, 0x02, 0x00, 0x00, 0x00, 0x00, 0x80, 0xe7, 0xee, 0x01, 0x00, 0x00,
   0x00, 0x00, 0x00, 0x00, 0x00, 0x00, 0x00, 0x00, 0x00, 0x00, 0x00, 0x00,
   0x00, 0x00, 0x00, 0x00, 0x00, 0x00, 0x00, 0x00, 0x00, 0x00, 0x00, 0x00,
   0x00, 0x70, 0x38, 0x00, 0x00, 0x00, 0x00, 0x00, 0x00, 0xe0, 0x1c, 0x00,
   0x20, 0x00, 0x00, 0x00, 0x00, 0xe0, 0x1c, 0x00, 0x30, 0x00, 0x00, 0x00,
   0x00, 0xa0, 0x9b, 0xd9, 0x34, 0xb3, 0x05, 0x00, 0x00, 0xa0, 0x1b, 0xde,
   0x33, 0xbf, 0x01, 0x00, 0x00, 0x20, 0x99, 0x99, 0x37, 0x83, 0x01, 0x00,
   0x00, 0x20, 0x99, 0x59, 0x36, 0xa7, 0x01, 0x00, 0x00, 0x70, 0x3c, 0xf7,
   0x63, 0xde, 0x03, 0x00, 0x00, 0x00, 0x00, 0x00, 0x00, 0x00, 0x00, 0x00,
   0x00, 0x00, 0x00, 0x00, 0x00, 0x00, 0x00, 0x00, 0x00, 0x00, 0x00, 0x00,
   0x00, 0x00, 0x00, 0x00, 0x00, 0x00, 0x00, 0x00, 0x00, 0x00, 0x00, 0x00,
   0x00, 0x00, 0x00, 0x00, 0x00, 0x00, 0x00, 0x00};
