#define radar.xbm_width 64
#define radar.xbm_height 64
static char radar.xbm_bits[] = {
   0x00, 0x00, 0x00, 0x00, 0x00, 0x00, 0x00, 0x00, 0x00, 0x00, 0x00, 0x00,
   0x00, 0x00, 0x00, 0x00, 0x00, 0x00, 0x00, 0x00, 0x00, 0x00, 0x00, 0x00,
   0x00, 0x00, 0x00, 0x00, 0x00, 0x00, 0x00, 0x00, 0x00, 0x00, 0x00, 0x00,
   0x00, 0x00, 0x00, 0x00, 0x00, 0x00, 0x00, 0x00, 0x00, 0x00, 0x00, 0x00,
   0x00, 0x00, 0x00, 0x00, 0x00, 0x00, 0x00, 0x00, 0x00, 0x00, 0x00, 0x00,
   0x00, 0x00, 0x00, 0x00, 0x00, 0x00, 0x00, 0x00, 0x00, 0x00, 0x00, 0x00,
   0x00, 0x00, 0x00, 0x00, 0x00, 0x00, 0x00, 0x00, 0x00, 0x00, 0x00, 0x00,
   0x00, 0x00, 0x00, 0x00, 0x00, 0x00, 0x00, 0x00, 0x00, 0x00, 0x00, 0x00,
   0x00, 0xe0, 0xff, 0xff, 0xff, 0x03, 0x00, 0x00, 0x7b, 0x2f, 0x00, 0x00,
   0x00, 0x02, 0x00, 0x00, 0x31, 0x26, 0x00, 0x00, 0x00, 0x02, 0x00, 0x00,
   0x31, 0x26, 0x00, 0x00, 0x00, 0x02, 0x00, 0x00, 0x31, 0x26, 0x00, 0x00,
   0x00, 0x02, 0x00, 0x00, 0x31, 0x26, 0x00, 0x00, 0x00, 0x02, 0x00, 0x00,
   0x31, 0xe6, 0x77, 0x00, 0x07, 0x02, 0x00, 0x00, 0x31, 0xa6, 0x69, 0x00,
   0x06, 0x02, 0x00, 0x00, 0x7b, 0xaf, 0x67, 0xe3, 0x16, 0x02, 0x00, 0x00,
   0x00, 0xa0, 0x69, 0x36, 0x0e, 0xfe, 0x00, 0x00, 0x00, 0xa0, 0x69, 0xb7,
   0x0e, 0x1a, 0x01, 0x02, 0x00, 0xe0, 0x77, 0x6f, 0x16, 0x1a, 0x03, 0x03,
   0x00, 0x20, 0x00, 0x00, 0x00, 0x1a, 0xbb, 0x77, 0x00, 0xe0, 0x31, 0x00,
   0x0c, 0x1a, 0x63, 0xc3, 0x00, 0xa0, 0x3b, 0x00, 0x01, 0x1a, 0x73, 0xe3,
   0x00, 0xa0, 0x36, 0xe3, 0xce, 0x1b, 0x69, 0xd3, 0xc1, 0xa1, 0x36, 0xd6,
   0x6c, 0xfe, 0x78, 0xf6, 0x22, 0xa2, 0x36, 0x67, 0x6c, 0x03, 0x00, 0x00,
   0x36, 0xe6, 0x34, 0x4f, 0xce, 0x02, 0x00, 0x00, 0x36, 0x26, 0x00, 0xb0,
   0x00, 0x02, 0x00, 0x00, 0x36, 0x26, 0x00, 0xf0, 0x00, 0x02, 0x00, 0x00,
   0xf6, 0x26, 0x00, 0x00, 0x00, 0x02, 0x00, 0x00, 0x62, 0x23, 0x00, 0x00,
   0x00, 0x02, 0x00, 0x00, 0xcb, 0x2b, 0x00, 0x00, 0x00, 0x02, 0x00, 0x00,
   0x06, 0x26, 0x00, 0x00, 0x00, 0x02, 0x00, 0x00, 0x00, 0xe0, 0xff, 0xff,
   0xff, 0x03, 0x00, 0x00, 0x00, 0x00, 0x00, 0x00, 0x00, 0x00, 0x00, 0x00,
   0x00, 0x00, 0x00, 0x00, 0x00, 0x00, 0x00, 0x00, 0x00, 0x00, 0x97, 0x01,
   0x00, 0xe0, 0x00, 0x00, 0x00, 0x80, 0x99, 0x01, 0x00, 0xc0, 0x00, 0x00,
   0x00, 0x80, 0x11, 0x80, 0x00, 0xc0, 0x00, 0x00, 0x00, 0x80, 0xc7, 0x71,
   0x36, 0xc7, 0x00, 0x00, 0x00, 0x00, 0x9e, 0xd9, 0x6e, 0xcc, 0x00, 0x00,
   0x00, 0x80, 0x98, 0xd9, 0x66, 0xce, 0x00, 0x00, 0x00, 0x80, 0x99, 0x71,
   0x66, 0xcd, 0x00, 0x00, 0x00, 0x80, 0xce, 0xf3, 0x67, 0xef, 0x01, 0x00,
   0x00, 0x00, 0x00, 0x88, 0x01, 0x00, 0x00, 0x00, 0x00, 0x00, 0x00, 0xf8,
   0x00, 0x00, 0x00, 0x00, 0x00, 0x00, 0x00, 0x00, 0x00, 0x00, 0x00, 0x00,
   0x00, 0x00, 0x00, 0x00, 0x00, 0x00, 0x00, 0x00, 0xfc, 0x00, 0x00, 0x00,
   0x00, 0x60, 0x00, 0x00, 0x98, 0x01, 0x00, 0x00, 0x00, 0x60, 0x00, 0x00,
   0x98, 0x01, 0x00, 0x00, 0x00, 0x00, 0x00, 0x10, 0x98, 0x2d, 0x8f, 0xe3,
   0x38, 0x77, 0x36, 0x0e, 0xf8, 0xbc, 0xd9, 0xb4, 0x8d, 0x61, 0x6e, 0x1b,
   0x18, 0x8c, 0xd9, 0xf0, 0xbd, 0x67, 0x66, 0x1b, 0x18, 0x8c, 0xd9, 0x34,
   0x30, 0x66, 0x66, 0x0e, 0x3c, 0x0c, 0x8f, 0xe3, 0x9d, 0xf3, 0x66, 0x3e,
   0x00, 0x00, 0x00, 0x00, 0x00, 0x00, 0x00, 0x31, 0x00, 0x00, 0x00, 0x00,
   0x00, 0x00, 0x00, 0x1f, 0x00, 0x00, 0x00, 0x00, 0x00, 0x00, 0x00, 0x00,
   0x00, 0x00, 0x00, 0x00, 0x00, 0x00, 0x00, 0x00};
