#define tape.err.image.xbm_width 64
#define tape.err.image.xbm_height 64
static char tape.err.image.xbm_bits[] = {
   0x00, 0x00, 0x00, 0x00, 0x00, 0x00, 0x00, 0x00, 0x00, 0x00, 0x00, 0x00,
   0x00, 0x00, 0x00, 0x00, 0x01, 0x00, 0x00, 0x00, 0x00, 0x00, 0x00, 0x00,
   0x07, 0x00, 0x00, 0x00, 0x00, 0x00, 0x00, 0x00, 0x7c, 0xff, 0xff, 0xff,
   0xff, 0xff, 0xff, 0x00, 0xc0, 0x31, 0x00, 0x00, 0x00, 0x00, 0x80, 0x00,
   0x00, 0xe1, 0x01, 0x00, 0x00, 0x00, 0x80, 0x00, 0x00, 0x01, 0xff, 0x00,
   0x00, 0x7f, 0x80, 0x00, 0x00, 0x81, 0x31, 0x03, 0xc0, 0x80, 0x81, 0x00,
   0x00, 0x41, 0x7c, 0x04, 0x20, 0x00, 0x82, 0x00, 0x00, 0x21, 0xff, 0x09,
   0x10, 0x00, 0x84, 0x00, 0x00, 0x91, 0xff, 0x13, 0x08, 0x3e, 0x88, 0x00,
   0x00, 0xd1, 0xff, 0x17, 0x08, 0x7f, 0x88, 0x00, 0x00, 0xc9, 0xff, 0x27,
   0x84, 0xff, 0x90, 0x00, 0x00, 0xe9, 0xc7, 0x2f, 0xc4, 0xe3, 0x91, 0x00,
   0x00, 0xe9, 0x83, 0x2f, 0xc4, 0xc1, 0x91, 0x00, 0x00, 0xe9, 0x93, 0x2f,
   0xc4, 0xc9, 0x91, 0x00, 0x00, 0xe9, 0x83, 0x2f, 0xc4, 0xc1, 0x91, 0x00,
   0x00, 0xe9, 0xc7, 0x2f, 0xc4, 0xe3, 0x91, 0x00, 0x00, 0xc9, 0xff, 0x27,
   0x84, 0xff, 0x90, 0x00, 0x00, 0xd1, 0xff, 0x17, 0x08, 0x7f, 0x88, 0x00,
   0x00, 0x91, 0xff, 0x13, 0x08, 0x3e, 0x88, 0x00, 0x00, 0x21, 0xff, 0x09,
   0x10, 0x00, 0x84, 0x00, 0x00, 0x41, 0x7c, 0x04, 0x20, 0x00, 0x86, 0x00,
   0x00, 0x81, 0x01, 0x03, 0xc0, 0x80, 0x83, 0x00, 0x00, 0x01, 0xfe, 0x00,
   0x00, 0x7f, 0x82, 0x00, 0x00, 0x01, 0x00, 0x00, 0x00, 0x00, 0x81, 0x00,
   0x00, 0x01, 0x00, 0x00, 0x00, 0x00, 0x81, 0x00, 0x00, 0x01, 0x00, 0x00,
   0x00, 0x80, 0x80, 0x00, 0x00, 0x01, 0x00, 0x00, 0x00, 0x60, 0x80, 0x00,
   0x00, 0x01, 0x00, 0x00, 0x00, 0x60, 0x80, 0x00, 0x00, 0x01, 0x00, 0x00,
   0x00, 0xc0, 0x80, 0x00, 0x00, 0x01, 0x00, 0x10, 0x04, 0x00, 0x83, 0x00,
   0x00, 0x01, 0x00, 0xe0, 0x03, 0x00, 0x82, 0x00, 0x00, 0x01, 0x70, 0x10,
   0x04, 0x07, 0x82, 0x00, 0x00, 0x01, 0x88, 0x08, 0x88, 0x08, 0x9c, 0x00,
   0x00, 0x01, 0x88, 0x08, 0x88, 0x08, 0xe0, 0x00, 0x00, 0x01, 0x88, 0x08,
   0x88, 0x08, 0x80, 0x00, 0x00, 0x01, 0x70, 0xf8, 0x0f, 0x07, 0x80, 0x01,
   0x00, 0x01, 0x00, 0x00, 0x00, 0x00, 0x80, 0x03, 0x00, 0xff, 0xff, 0xff,
   0xff, 0xff, 0xff, 0x06, 0x00, 0x00, 0x00, 0x00, 0x00, 0x06, 0x00, 0x04,
   0x00, 0x1f, 0x00, 0x00, 0xe0, 0x06, 0x00, 0x08, 0x00, 0x36, 0x00, 0x00,
   0xc0, 0x00, 0x80, 0x08, 0x00, 0x36, 0xe7, 0x9c, 0xf5, 0xd6, 0xf8, 0x00,
   0x00, 0xbe, 0x35, 0xbe, 0xdb, 0xf6, 0xfd, 0x00, 0x00, 0x96, 0x37, 0xb6,
   0xd9, 0xb6, 0x2d, 0x00, 0x00, 0xb6, 0xb1, 0xb6, 0xd9, 0xb6, 0x39, 0x00,
   0x00, 0x77, 0xe7, 0x9c, 0xb1, 0xb7, 0x0f, 0x00, 0x00, 0x00, 0x00, 0x00,
   0x00, 0x00, 0x3c, 0x00, 0x00, 0x00, 0x00, 0x00, 0x00, 0x00, 0x00, 0x00,
   0x00, 0xf8, 0x1f, 0x00, 0x00, 0x00, 0x00, 0x00, 0x00, 0x70, 0x18, 0x00,
   0x00, 0x00, 0x00, 0x00, 0x00, 0x70, 0x10, 0x00, 0x00, 0x00, 0x00, 0x00,
   0x00, 0x70, 0x00, 0x00, 0x00, 0x00, 0x00, 0x00, 0x00, 0x70, 0xc0, 0xdd,
   0x1d, 0x8f, 0x3b, 0x00, 0x00, 0x70, 0x84, 0x9b, 0x9b, 0x19, 0x37, 0x00,
   0x00, 0xf0, 0x87, 0x83, 0xc3, 0x39, 0x07, 0x00, 0x00, 0x70, 0x84, 0x83,
   0xc3, 0x39, 0x07, 0x00, 0x00, 0x70, 0x80, 0x83, 0xc3, 0x39, 0x07, 0x00,
   0x00, 0x70, 0x80, 0x83, 0xc3, 0x39, 0x07, 0x00, 0x00, 0x70, 0x90, 0x83,
   0xc3, 0x39, 0x07, 0x00, 0x00, 0x70, 0x98, 0x83, 0x83, 0x19, 0x07, 0x00,
   0x00, 0xf8, 0xdf, 0xc7, 0x07, 0x8f, 0x0f, 0x00};
