M48
;FILE_FORMAT=2:4
INCH,TZ
;TYPE=PLATED
T01C0.025
T02C0.038
T03C0.045
T04C0.056
;TYPE=NON_PLATED
T05C0.125
T06C0.136
%
T01
X+29250Y+31550
X+28050
X+28650
X+29450Y+39500
X+31700Y+38600
X+30800Y+40250
X+31650Y+39750
X+35750Y+28750
X+34000
X+34550Y+34400
X+33400Y+39600
X+36750Y+34400
X+37380Y+37200
X+38400Y+39250
X+42800Y+37050
X+44000
X+43400
X+42800Y+41550
X+44000
X+43400
X+55750Y+38300
X+56350
X+55750Y+42800
X+56350
X+58740Y+43300
X+62500Y+39900
X+60300Y+40950
X+61900Y+42550
X+60900Y+43300
X+61980
X+64950Y+31200
X+63750
X+64350
X+65000Y+35700
X+63750
X+64350
X+64000Y+37650
X+63500Y+39900
X+64600Y+40620
X+64140Y+43250
X+65220
X+66350Y+31950
X+66650Y+30750
X+66350Y+35450
Y+34120
Y+37620
X+69300Y+26650
X+70300
X+69800Y+30300
X+69300
X+69250Y+31880
X+70800Y+31300
X+69300Y+35380
X+70800Y+35250
Y+37620
X+72850Y+33450
X+72350Y+33850
X+29300Y+36050
X+28050
X+28650
X+33870Y+29970
X+33400Y+41900
X+38050Y+42150
X+40250
X+40500Y+39000
X+62500Y+39150
X+30080Y+37250
X+56950Y+38300
X+57000Y+42800
X+59820Y+43300
X+68800Y+26650
Y+30750
X+63000Y+39900
T02
X+73500Y+42300
X+75500
X+32500Y+31500
Y+33500
Y+32500
X+37500Y+31000
Y+32000
Y+33000
X+73500Y+30000
Y+32000
Y+33000
Y+35000
Y+36000
Y+39000
Y+38000
Y+34000
Y+31000
Y+40000
Y+37000
X+74500Y+30000
Y+33000
Y+32000
Y+35000
Y+36000
Y+39000
Y+38000
Y+34000
Y+31000
Y+40000
Y+37000
T03
X+18310Y+34840
Y+37000
Y+38080
X+17190Y+35380
Y+36460
Y+37540
X+18310Y+35920
Y+39160
X+17190Y+38620
X+28740Y+47810
X+30900
X+31980
X+34140
X+35220
X+29280Y+46690
X+28200
X+31440
X+32520
X+33600
X+34680
X+29820Y+47810
X+33060
X+30360Y+46690
X+35760
X+58740Y+47810
X+60900
X+61980
X+64140
X+65220
X+59280Y+46690
X+58200
X+61440
X+62520
X+63600
X+64680
X+59820Y+47810
X+63060
X+60360Y+46690
X+65760
T04
X+30800Y+24500
X+29800Y+23500
X+31800
Y+25500
X+29800
X+53300Y+24500
X+52300Y+23500
X+54300
Y+25500
X+52300
X+45800Y+24500
X+44800Y+23500
X+46800
Y+25500
X+44800
X+38300Y+24500
X+37300Y+23500
X+39300
Y+25500
X+37300
X+23300Y+24500
X+22300Y+23500
X+24300
Y+25500
X+22300
X+60800Y+24500
X+59800Y+23500
X+61800
Y+25500
X+59800
X+68300Y+24500
X+67300Y+23500
X+69300
Y+25500
X+67300
T05
X+17750Y+32060
Y+41940
X+25420Y+47250
X+38540
X+55420
X+68540
T06
X+15800Y+49200
Y+24800
X+83200
Y+49200
T00
M30