#define disperr.xbm_width 64
#define disperr.xbm_height 64
static char disperr.xbm_bits[] = {
   0x00, 0x00, 0x00, 0x08, 0x02, 0x00, 0x00, 0x00, 0x00, 0x00, 0x20, 0x08,
   0x04, 0x00, 0x00, 0x00, 0x00, 0x00, 0x20, 0x18, 0x04, 0x02, 0x00, 0x00,
   0x00, 0x00, 0x60, 0x00, 0x00, 0x02, 0x00, 0x00, 0xf8, 0xff, 0xff, 0xff,
   0x1f, 0x22, 0x00, 0x00, 0xfc, 0xff, 0xff, 0xff, 0x21, 0x00, 0x00, 0x00,
   0xfc, 0xff, 0xff, 0xff, 0x2f, 0x00, 0x00, 0x00, 0x1c, 0x00, 0x00, 0x08,
   0x38, 0x08, 0x00, 0x00, 0x0c, 0xf0, 0x07, 0x08, 0x30, 0x04, 0x00, 0x00,
   0x0c, 0x8c, 0x18, 0x68, 0x25, 0x82, 0x00, 0x00, 0x0c, 0x82, 0x20, 0x68,
   0x00, 0x81, 0x00, 0x00, 0x0c, 0x81, 0x40, 0x08, 0x30, 0x40, 0x00, 0x00,
   0x8c, 0xe0, 0x83, 0x68, 0x37, 0x00, 0x00, 0x00, 0x4c, 0x98, 0x0c, 0x69,
   0x30, 0x0a, 0x00, 0x00, 0x4c, 0x84, 0x10, 0x09, 0x30, 0x00, 0x00, 0x00,
   0x2c, 0xc4, 0x11, 0x6a, 0x05, 0x00, 0x00, 0x00, 0x2c, 0xa2, 0x22, 0x6a,
   0x00, 0x1c, 0x00, 0x00, 0x2c, 0x92, 0x24, 0x0a, 0x00, 0x02, 0x00, 0x00,
   0xec, 0xff, 0xff, 0x6b, 0x05, 0x00, 0x00, 0x00, 0x2c, 0x92, 0x24, 0x6a,
   0xa0, 0xea, 0x00, 0x00, 0x2c, 0xa2, 0x22, 0x0a, 0xb0, 0x00, 0x00, 0x00,
   0x2c, 0xc4, 0x11, 0x6a, 0x36, 0x00, 0x00, 0x00, 0x4c, 0x84, 0x10, 0x69,
   0x10, 0x00, 0x00, 0x00, 0x4c, 0x98, 0x0c, 0x09, 0x00, 0x37, 0x00, 0x00,
   0x8c, 0xe0, 0x83, 0x68, 0x33, 0x01, 0x00, 0x00, 0x0c, 0x81, 0x40, 0x68,
   0xa0, 0xd8, 0x01, 0x00, 0x0c, 0x82, 0x20, 0x08, 0x30, 0x00, 0x00, 0x00,
   0x0c, 0x8c, 0x18, 0x08, 0x30, 0x70, 0x00, 0x00, 0x1c, 0xf0, 0x07, 0x08,
   0xe0, 0x17, 0x00, 0x00, 0xfc, 0xff, 0xff, 0xff, 0x4b, 0x00, 0x00, 0x00,
   0xfc, 0xff, 0xff, 0xff, 0x03, 0x06, 0x00, 0x00, 0xf8, 0xff, 0xff, 0xff,
   0x1f, 0x30, 0x00, 0x00, 0x00, 0x00, 0x00, 0x80, 0x00, 0xe0, 0x00, 0x00,
   0x00, 0xfc, 0x01, 0x80, 0x41, 0x00, 0x00, 0x00, 0x00, 0x54, 0x01, 0x80,
   0xc0, 0x00, 0x00, 0x00, 0x00, 0x54, 0x01, 0x80, 0x80, 0x00, 0x00, 0x00,
   0x00, 0xfc, 0x01, 0x80, 0x00, 0x01, 0x00, 0x00, 0x00, 0x04, 0x11, 0x80,
   0x00, 0x01, 0x00, 0x00, 0x00, 0xfc, 0xab, 0x81, 0x01, 0x02, 0x00, 0x00,
   0x00, 0x00, 0x44, 0x62, 0x01, 0x04, 0x00, 0x00, 0x00, 0x00, 0x00, 0x00,
   0x00, 0x00, 0x00, 0x00, 0x00, 0x00, 0x00, 0x00, 0x00, 0x00, 0x00, 0x00,
   0x00, 0x00, 0x00, 0x00, 0x00, 0x00, 0x00, 0x00, 0x00, 0x00, 0x00, 0x00,
   0x00, 0x00, 0x00, 0x00, 0x00, 0x00, 0x00, 0x00, 0x00, 0x00, 0x00, 0x00,
   0x00, 0xf0, 0x63, 0x00, 0x38, 0x00, 0x00, 0x00, 0x00, 0x60, 0x66, 0x00,
   0x30, 0x00, 0x00, 0x00, 0x00, 0x60, 0x0c, 0x00, 0x30, 0x00, 0x00, 0x00,
   0x00, 0x60, 0x7c, 0xfe, 0x33, 0xcf, 0x0c, 0x00, 0x00, 0x60, 0x6c, 0xd3,
   0xb6, 0xd9, 0x04, 0x00, 0x00, 0x60, 0x6c, 0xcf, 0x36, 0xde, 0x04, 0x00,
   0x00, 0x60, 0x6c, 0xde, 0xb6, 0x99, 0x05, 0x00, 0x00, 0x60, 0x66, 0xd9,
   0xb6, 0x99, 0x03, 0x00, 0x00, 0xf0, 0xf3, 0xcf, 0x7b, 0x37, 0x03, 0x00,
   0x00, 0x00, 0x00, 0xc0, 0x00, 0x00, 0x01, 0x00, 0x00, 0xc0, 0x3f, 0xc0,
   0x00, 0xc0, 0x01, 0x00, 0x00, 0x80, 0x31, 0xe0, 0x01, 0xc0, 0x00, 0x00,
   0x00, 0x80, 0x81, 0xdb, 0xcd, 0xcf, 0x0d, 0x00, 0x00, 0x80, 0x09, 0x9f,
   0xcf, 0x8c, 0x0f, 0x00, 0x00, 0x80, 0x0f, 0x93, 0x69, 0x98, 0x09, 0x00,
   0x00, 0x80, 0x09, 0x83, 0x61, 0x98, 0x01, 0x00, 0x00, 0x80, 0x21, 0x83,
   0x61, 0x98, 0x01, 0x00, 0x00, 0x80, 0x31, 0x83, 0xc1, 0x8c, 0x01, 0x00,
   0x00, 0xc0, 0xbf, 0xc7, 0xc3, 0xcf, 0x03, 0x00};
