#define master_err.xbm_width 64
#define master_err.xbm_height 64
static char master_err.xbm_bits[] = {
   0x00, 0x00, 0x00, 0x00, 0x00, 0x00, 0x00, 0x00, 0x00, 0x00, 0x00, 0x00,
   0x00, 0x00, 0x00, 0x00, 0x00, 0x00, 0x00, 0x00, 0x00, 0x00, 0x00, 0x00,
   0x00, 0xf0, 0x1f, 0xf0, 0x1f, 0xf0, 0x1f, 0x00, 0x00, 0xf8, 0x3f, 0xf8,
   0x3f, 0xf8, 0x3f, 0x00, 0x00, 0x18, 0x30, 0x18, 0x30, 0x18, 0x30, 0x00,
   0x00, 0x18, 0x30, 0x18, 0x30, 0x18, 0x30, 0x00, 0x00, 0x18, 0x30, 0x18,
   0x30, 0x18, 0x30, 0x00, 0x00, 0x18, 0x30, 0x18, 0x30, 0x18, 0x30, 0x00,
   0x00, 0x18, 0x30, 0x18, 0x30, 0x18, 0x30, 0x00, 0x00, 0x18, 0x30, 0x18,
   0x30, 0x18, 0x30, 0x00, 0x00, 0xf8, 0x3f, 0xf8, 0x3f, 0xf8, 0x3f, 0x00,
   0x00, 0xf0, 0x1f, 0xf0, 0x1f, 0xf8, 0x1f, 0x00, 0x00, 0x00, 0x00, 0x00,
   0x00, 0x00, 0x00, 0x00, 0x00, 0x00, 0x00, 0x00, 0x00, 0x00, 0x00, 0x00,
   0x00, 0x00, 0x00, 0x00, 0x00, 0x00, 0x00, 0x00, 0x00, 0xf0, 0x1f, 0xf0,
   0x1f, 0xf0, 0x1f, 0x00, 0x00, 0xf8, 0x3f, 0xf8, 0x3f, 0xf8, 0x3f, 0x00,
   0x00, 0x18, 0x30, 0xf8, 0x3f, 0x18, 0x30, 0x00, 0x00, 0x18, 0x30, 0xf8,
   0x3f, 0x18, 0x30, 0x00, 0x00, 0x18, 0x30, 0xf8, 0x3f, 0x18, 0x30, 0x00,
   0x00, 0x18, 0x30, 0xf8, 0x3f, 0x18, 0x30, 0x00, 0x00, 0x18, 0x30, 0xf8,
   0x3f, 0x18, 0x30, 0x00, 0x00, 0x18, 0x30, 0xf8, 0x3f, 0x18, 0x30, 0x00,
   0x00, 0xf8, 0x3f, 0xf8, 0x3f, 0xf8, 0x3f, 0x00, 0x00, 0xf0, 0x1f, 0xf0,
   0x1f, 0xf0, 0x1f, 0x00, 0x00, 0x00, 0x00, 0x00, 0x00, 0x00, 0x00, 0x00,
   0x00, 0x00, 0x00, 0xf0, 0x1f, 0x00, 0x00, 0x00, 0x00, 0x00, 0x00, 0xf8,
   0x3f, 0x00, 0x00, 0x00, 0x00, 0x00, 0x00, 0x18, 0x30, 0x00, 0x00, 0x00,
   0x00, 0x00, 0x00, 0x18, 0x30, 0x00, 0x00, 0x00, 0x00, 0x00, 0x00, 0x18,
   0x30, 0x00, 0x00, 0x00, 0x00, 0x00, 0x00, 0x18, 0x30, 0x00, 0x00, 0x00,
   0x00, 0x00, 0x00, 0x18, 0x30, 0x00, 0x00, 0x00, 0x00, 0x00, 0x00, 0x18,
   0x30, 0x00, 0x00, 0x00, 0x00, 0x00, 0x00, 0xf8, 0x3f, 0x00, 0x00, 0x00,
   0x00, 0x00, 0x00, 0xf0, 0x1f, 0x00, 0x00, 0x00, 0x00, 0x00, 0x00, 0x00,
   0x00, 0x00, 0x00, 0x00, 0x00, 0x00, 0x00, 0x00, 0x00, 0x00, 0x00, 0x00,
   0x00, 0x00, 0x00, 0x00, 0x00, 0x00, 0x00, 0x00, 0x00, 0x00, 0x00, 0x00,
   0x00, 0x00, 0x00, 0x00, 0x00, 0x00, 0x00, 0x00, 0x00, 0x00, 0x00, 0x00,
   0x00, 0x21, 0x00, 0x00, 0xe0, 0x00, 0xc0, 0x00, 0x00, 0x33, 0x00, 0x00,
   0xc0, 0x00, 0xc0, 0x00, 0x00, 0x3f, 0x00, 0x00, 0xc0, 0x00, 0xc0, 0x00,
   0x00, 0x3f, 0xcf, 0xc7, 0xc5, 0xf0, 0xf8, 0x00, 0x00, 0x33, 0xd8, 0x6c,
   0xc6, 0x98, 0xcd, 0x00, 0x00, 0x33, 0xdf, 0x6c, 0xc6, 0xf8, 0xcd, 0x00,
   0x00, 0xb3, 0xd9, 0xcc, 0xc3, 0x18, 0xcc, 0x00, 0x00, 0xb3, 0xd9, 0x6c,
   0xc0, 0x98, 0xcd, 0x00, 0x00, 0x33, 0xdf, 0xcc, 0xf3, 0xf3, 0xf8, 0x00,
   0x00, 0x00, 0x00, 0x60, 0x06, 0x00, 0x00, 0x00, 0x00, 0x00, 0x00, 0xc0,
   0x03, 0x00, 0x00, 0x00, 0x00, 0x00, 0x00, 0x00, 0x00, 0x00, 0x00, 0x00,
   0x00, 0x08, 0x01, 0x00, 0x00, 0x00, 0x00, 0x00, 0x00, 0x98, 0x01, 0x00,
   0x06, 0x00, 0x00, 0x00, 0x00, 0xf8, 0x01, 0x00, 0x06, 0x00, 0x00, 0x00,
   0x00, 0xf8, 0x79, 0x3c, 0x1f, 0xcf, 0x07, 0x00, 0x00, 0x98, 0xc1, 0x66,
   0x86, 0xd9, 0x0c, 0x00, 0x00, 0x98, 0xf9, 0x0c, 0x86, 0xdf, 0x00, 0x00,
   0x00, 0x98, 0xcd, 0x30, 0x86, 0xc1, 0x00, 0x00, 0x00, 0x98, 0xcd, 0x66,
   0xb6, 0xd9, 0x00, 0x00, 0x00, 0x98, 0xf9, 0x3c, 0x1c, 0xcf, 0x00, 0x00,
   0x00, 0x00, 0x00, 0x00, 0x00, 0x00, 0x00, 0x00};
