/* XPM */
static const char *Arrow[] = {
/* columns rows colors chars-per-pixel */
"30 30 60 1",
"  c #284BFC",
". c #2B4DFC",
"X c #2D4FFC",
"o c #3253FC",
"O c #3556FC",
"+ c #3758FC",
"@ c #3A5AFC",
"# c #3C5CFC",
"$ c #3F5EFC",
"% c #4160FC",
"& c #4462FC",
"* c #4967FC",
"= c #4B69FC",
"- c #506DFD",
"; c #536FFD",
": c #5671FD",
"> c #5D77FD",
", c #607AFD",
"< c #657EFD",
"1 c #6780FD",
"2 c #6A82FD",
"3 c #7188FD",
"4 c #748BFD",
"5 c #768DFD",
"6 c #798FFD",
"7 c #7E93FD",
"8 c #8195FD",
"9 c #8397FD",
"0 c #889BFD",
"q c #8B9EFD",
"w c #90A2FD",
"e c #92A4FD",
"r c #9AAAFE",
"t c #9CACFE",
"y c #A1B1FE",
"u c #A6B5FE",
"i c #A9B7FE",
"p c #B3BFFE",
"a c #B6C2FE",
"s c #BBC6FE",
"d c #C0CAFE",
"f c #C2CCFE",
"g c #CAD3FE",
"h c #CCD5FE",
"j c #CFD7FE",
"k c #D1D9FE",
"l c #D7DDFE",
"z c #D9DFFE",
"x c #DEE3FF",
"c c #E1E6FF",
"v c #E3E8FF",
"b c #E8ECFF",
"n c #EBEEFF",
"m c #EDF0FF",
"M c #F0F2FF",
"N c #F5F7FF",
"B c #F7F9FF",
"V c #FAFBFF",
"C c #FCFDFF",
"Z c gray100",
/* pixels */
"ZZZZZZZZZZZZZZZZZZZZZZZZZZZZZZ",
"ZZZZZZZZZZZZZZZZZZZZZZZZZZZxfZ",
"ZZZZZZZZZZZZZZZZZZZZZZZZZZi=VZ",
"ZZZZZZZZZZZZZZZZZZZZZZZZm2.hZZ",
"ZZZZZZZZZZZZZZZZZZZZZZZs$ 7ZZZ",
"ZZZZZZZZZZZZZZZZZZZZZV9  @mZZZ",
"ZZZZZZZZZZZZZZZZZZZZz*   pZZZZ",
"ZZZZZZZZZZZZZZZZZZZrX   <ZZZZZ",
"ZZZZZZZZZZZZZZZZZn>    ocZZZZZ",
"ZZZZZZZZZZZZZZZZaO     rZZZZZZ",
"ZZZZZZZZZZZZZZN4      =ZZZZZZZ",
"ZZZZZZZZZZZZZh&      .kZZZZZZZ",
"ZZZZZZZZZZZVw.       9ZZZZZZZZ",
"ZZZZZZZZZZx:        $NZZZZZZZZ",
"ZZZZZZZZZio         sZZZZZZZZZ",
"ZZZZZZZm2          <ZZZZZZZZZZ",
"ZZZZZZf#          obZZZZZZZZZZ",
"ZZZZN9            yZZZZZZZZZZZ",
"ZZZZ=            ;ZZZZZZZZZZZZ",
"ZZZZho          .lZZZZZZZZZZZZ",
"ZZZZZk+         0ZZZZZZZZZZZZZ",
"ZZZZZZlX       %NZZZZZZZZZZZZZ",
"ZZZZZZ5       .fZZZZZZZZZZZZZZ",
"ZZZZZ7   O    2ZZZZZZZZZZZZZZZ",
"ZZZZ0   9n=  +nZZZZZZZZZZZZZZZ",
"ZZZe   6ZZM: uZZZZZZZZZZZZZZZZ",
"ZZt   2CZZZN0ZZZZZZZZZZZZZZZZZ",
"ZM$  1ZZZZZZZZZZZZZZZZZZZZZZZZ",
"ZZv&,NZZZZZZZZZZZZZZZZZZZZZZZZ",
"ZZZnVZZZZZZZZZZZZZZZZZZZZZZZZZ"
};
