/* XPM */
static char *Paw[] = {
/* columns rows colors chars-per-pixel */
"30 30 77 1",
"  c #284BFC",
". c #2B4DFC",
"X c #2D4FFC",
"o c #3051FC",
"O c #3556FC",
"+ c #3758FC",
"@ c #3A5AFC",
"# c #3C5CFC",
"$ c #3F5EFC",
"% c #4160FC",
"& c #4664FC",
"* c #4967FC",
"= c #4B69FC",
"- c #4E6BFD",
"; c #506DFD",
": c #536FFD",
"> c #5671FD",
", c #5873FD",
"< c #5B75FD",
"1 c #5D77FD",
"2 c #627CFD",
"3 c #657EFD",
"4 c #6780FD",
"5 c #6A82FD",
"6 c #6C84FD",
"7 c #748BFD",
"8 c #768DFD",
"9 c #798FFD",
"0 c #7B91FD",
"q c #7E93FD",
"w c #8397FD",
"e c #8699FD",
"r c #889BFD",
"t c #8B9EFD",
"y c #8DA0FD",
"u c #90A2FD",
"i c #92A4FD",
"p c #97A8FE",
"a c #9AAAFE",
"s c #9FAFFE",
"d c #A4B3FE",
"f c #A6B5FE",
"g c #A9B7FE",
"h c #ACB9FE",
"j c #AEBBFE",
"k c #B1BDFE",
"l c #B3BFFE",
"z c #B6C2FE",
"x c #B8C4FE",
"c c #BBC6FE",
"v c #BDC8FE",
"b c #C0CAFE",
"n c #C2CCFE",
"m c #C5CEFE",
"M c #C7D0FE",
"N c #CAD3FE",
"B c #CCD5FE",
"V c #CFD7FE",
"C c #D1D9FE",
"Z c #D4DBFE",
"A c #D7DDFE",
"S c #D9DFFE",
"D c #DCE1FF",
"F c #DEE3FF",
"G c #E1E6FF",
"H c #E3E8FF",
"J c #E6EAFF",
"K c #E8ECFF",
"L c #EBEEFF",
"P c #EDF0FF",
"I c #F0F2FF",
"U c #F2F4FF",
"Y c #F5F7FF",
"T c #F7F9FF",
"R c #FAFBFF",
"E c #FCFDFF",
"W c gray100",
/* pixels */
"WWWWWWWWWWWWWWWWWWWWWWWWWWWWWW",
"WWWWWWWWWWIWWWWWWWWWWWWWWWWWWW",
"WWWWWWWWC& >DWWWWWWz0aYWWWWWWW",
"WWWWWWWI@   OKWWWR3 . 4WWWWWWW",
"WWWWWWWg     6WWW0     CWWWWWW",
"WWWWWWWe     .JWD      jWWWWWW",
"WWWWWWW9      xWw      dWWWWWW",
"WWWWWWWi      sW=      nWWWWWW",
"WWWWWWWB      gW+     OTWWWWWW",
"WWAuhYWW*     ZW&     yWWWWWWW",
"Wvo  @BWBo   1WWr    :TWWWWWWW",
"W$    OGWC, 4PWWI-  2KWWh2<lWW",
"U      5WWWWWWWWWWCGWWR5    vW",
"R.     .IWWWWWWWWWWWWWe     5W",
"W<      MWWWWWWWWWWWWD.     :W",
"Wb      MWWWx2+-pYWWWp      6W",
"WW7    oUWK1     $SWW9     .lW",
"WWWtX XjWZ@       @BWe     -EW",
"WWWWPZKWA+         oMB  . $DWW",
"WWWWWWWP$           +Gj&%0LWWW",
"WWWWWWW1             <WWWWWWWW",
"WWWWWWj               lWWWWWWW",
"WWWWWR@               :WWWWWWW",
"WWWWWl                 DWWWWWW",
"WWWWW0                 xWWWWWW",
"WWWWW0                .DWWWWWW",
"WWWWWJ3     *9fj7%   $NWWWWWWW",
"WWWWWWWDvbSWWWWWWWJzmUWWWWWWWW",
"WWWWWWWWWWWWWWWWWWWWWWWWWWWWWW",
"WWWWWWWWWWWWWWWWWWWWWWWWWWWWWW"
};
