/* XPM */
static char *Z[] = {
/* columns rows colors chars-per-pixel */
"30 30 17 1",
"  c #1010DC",
". c #1E1EDE",
"X c #2D2DE0",
"o c #3C3CE2",
"O c #4B4BE5",
"+ c #5A5AE7",
"@ c #6969E9",
"# c #7878EB",
"$ c #8787ED",
"% c #9696F0",
"& c #A5A5F2",
"* c #B4B4F4",
"= c #C3C3F6",
"- c #D2D2F8",
"; c #E1E1FB",
": c #F0F0FD",
"> c gray100",
/* pixels */
">>>>>>>>>>>>>>>>>>>>>>>>>>>>>>",
">>>>>>>>>>>>>>>>>>>>>>>>>>>>>>",
">>>>>>>>>>>>-=->>>>>>>>>>>>>>>",
">>>>>>>>>>&X    o#%====$o>>>>>",
">>>>>>>>>O              X>>>>>",
">>>>>>>>-X%=$@X         #>>>>>",
">>>>>>>>:>>>>>>;*$$$#  @>>>>>>",
">>>>>>>>>>>>>>>>>>>>o @>>>>>>>",
">>>>>>>>>>>>>>>>>>>@ o>>>>>>>>",
">>>>>>>>>>>>>>>>>>@ o:>>>>>>>>",
">>>>>>>>>>>>>>>>>@ o:>>>>>>>>>",
">>>>>>>>>>>>>>>>@ o:>>>>>>>>>>",
">>>>>>>>>>>>>>>% .->>>>>>>>>>>",
">>>>>>>>>>>>>>& .->>>>>>>>>>>>",
">>>>>>>>>>>>>& .->>>>>>>>>>>>>",
">>>>>>>>>>>>& .->>>>>>>>>>>>>>",
">>>>>>>>>>>*  &>>>>>>>>>>>>>>>",
">>>>>>>>>>-. &>>>>>>>>>>>>>>>>",
">>>>>>>>>-. &>>>>>>>>>>>>>>>>>",
">>>>>>>>-. &>>>>>>>>>>>>>>>>>>",
">>>>>>>-. @>>>>>>>>>>>>->>>>>>",
">>>>>>:X +====>>>>>>>>-X>>>>>>",
">>>>>:o        X+$*==$.#>>>>>>",
">>>>>+                @>>>>>>>",
">>>>>X O#%=*$+.      #>>>>>>>>",
">>>>>*:>>>>>>>>;*$$$;>>>>>>>>>",
">>>>>>>>>>>>>>>>>>>>>>>>>>>>>>",
">>>>>>>>>>>>>>>>>>>>>>>>>>>>>>",
">>>>>>>>>>>>>>>>>>>>>>>>>>>>>>",
">>>>>>>>>>>>>>>>>>>>>>>>>>>>>>"
};
