#define hpa_ok.xbm_width 64
#define hpa_ok.xbm_height 64
static unsigned char hpa_ok.xbm_bits[] = {
   0x00, 0x00, 0x00, 0x00, 0x00, 0x00, 0x00, 0x00, 0x00, 0x00, 0x00, 0x00,
   0x00, 0x00, 0x00, 0x00, 0x00, 0x00, 0x00, 0x00, 0x00, 0x00, 0x00, 0x00,
   0x00, 0x00, 0x00, 0x00, 0x00, 0x00, 0x00, 0x00, 0x00, 0x00, 0x00, 0x00,
   0x00, 0x00, 0x00, 0x00, 0x00, 0x00, 0x00, 0x00, 0x00, 0x00, 0x00, 0x00,
   0x00, 0x00, 0x00, 0x00, 0x00, 0x00, 0x00, 0x00, 0x00, 0xc0, 0xff, 0xff,
   0xff, 0xff, 0x07, 0x00, 0x00, 0x40, 0x00, 0x00, 0x00, 0x00, 0x04, 0x00,
   0x00, 0x40, 0xff, 0xff, 0xff, 0xff, 0x05, 0x00, 0x00, 0x40, 0x01, 0x00,
   0x00, 0x00, 0x05, 0x00, 0x00, 0x40, 0xc7, 0x0f, 0xc0, 0x07, 0x05, 0x00,
   0x00, 0x40, 0xc7, 0x0f, 0xc0, 0x07, 0x05, 0x00, 0x00, 0x40, 0x01, 0x00,
   0x00, 0x00, 0x05, 0x00, 0x00, 0x40, 0x01, 0x03, 0x80, 0x01, 0x05, 0x00,
   0x00, 0x40, 0x01, 0x03, 0x80, 0x01, 0x05, 0x00, 0x00, 0x40, 0xd7, 0x5d,
   0xf0, 0x7f, 0x05, 0x00, 0x00, 0x40, 0xe7, 0x6e, 0x10, 0x40, 0x05, 0x00,
   0x00, 0x40, 0xb1, 0x3b, 0xf0, 0x7f, 0x05, 0x00, 0x00, 0x40, 0xff, 0xff,
   0xff, 0xff, 0x05, 0x00, 0x00, 0x40, 0xd9, 0x00, 0x00, 0x00, 0x05, 0x00,
   0x00, 0x40, 0xe9, 0x00, 0x00, 0x22, 0x05, 0x00, 0x00, 0x40, 0xb9, 0x00,
   0x00, 0x22, 0x05, 0x00, 0x00, 0x40, 0xff, 0xff, 0xff, 0xff, 0x05, 0x00,
   0x00, 0x40, 0x01, 0x00, 0x00, 0x00, 0x05, 0x00, 0x00, 0x40, 0x01, 0x00,
   0x00, 0x00, 0x05, 0x00, 0x00, 0x40, 0xb1, 0xbb, 0xbb, 0x3b, 0x05, 0x00,
   0x00, 0x40, 0x71, 0x77, 0x77, 0x37, 0x05, 0x00, 0x00, 0x40, 0xd1, 0xdd,
   0xdd, 0x1d, 0x05, 0x00, 0x00, 0x40, 0xe1, 0xee, 0xee, 0x2e, 0x05, 0x00,
   0x00, 0x40, 0xb1, 0xbb, 0xbb, 0x3b, 0x05, 0x00, 0x00, 0x40, 0x71, 0x77,
   0x77, 0x37, 0x05, 0x00, 0x00, 0x40, 0xd1, 0xdd, 0xdd, 0x1d, 0x05, 0x00,
   0x00, 0x40, 0x01, 0x00, 0x00, 0x00, 0x05, 0x00, 0x00, 0x40, 0x01, 0x00,
   0x00, 0x00, 0x05, 0x00, 0x00, 0x40, 0x01, 0x00, 0x00, 0x00, 0x05, 0x00,
   0x00, 0x40, 0x01, 0x00, 0x00, 0x00, 0x05, 0x00, 0x00, 0x40, 0x01, 0x00,
   0x00, 0x00, 0x05, 0x00, 0x00, 0x40, 0x01, 0x00, 0x00, 0x00, 0x05, 0x00,
   0x00, 0x40, 0x01, 0x00, 0x00, 0x00, 0x05, 0x00, 0x00, 0x40, 0x01, 0x00,
   0x00, 0x00, 0x05, 0x00, 0x00, 0x40, 0x01, 0x00, 0x00, 0x00, 0x05, 0x00,
   0x00, 0x40, 0x01, 0x00, 0x00, 0x00, 0x05, 0x00, 0x00, 0x40, 0x01, 0x00,
   0x00, 0x00, 0x05, 0x00, 0x00, 0x40, 0x01, 0x00, 0x00, 0x00, 0x05, 0x00,
   0x00, 0x40, 0xff, 0xff, 0xff, 0xff, 0x05, 0x00, 0x00, 0x40, 0x00, 0x00,
   0x00, 0x00, 0x04, 0x00, 0x00, 0xc0, 0xff, 0xff, 0xff, 0xff, 0x07, 0x00,
   0x00, 0x00, 0x00, 0x00, 0x00, 0x00, 0x00, 0x00, 0x00, 0x00, 0x00, 0x00,
   0x00, 0x00, 0x00, 0x00, 0x00, 0x00, 0x00, 0x00, 0x00, 0x00, 0x00, 0x00,
   0x00, 0x98, 0x7d, 0x3c, 0x00, 0xcf, 0x08, 0x00, 0x00, 0x98, 0xcd, 0x66,
   0x80, 0xd9, 0x0c, 0x00, 0x00, 0x98, 0xcd, 0x66, 0x80, 0xd9, 0x06, 0x00,
   0x00, 0x98, 0xcd, 0x66, 0x80, 0xd9, 0x03, 0x00, 0x00, 0xf8, 0x7d, 0x7e,
   0x80, 0xd9, 0x01, 0x00, 0x00, 0x98, 0x0d, 0x66, 0x80, 0xd9, 0x03, 0x00,
   0x00, 0x98, 0x0d, 0x66, 0x80, 0xd9, 0x06, 0x00, 0x00, 0x98, 0x0d, 0x66,
   0x80, 0xd9, 0x0c, 0x00, 0x00, 0x98, 0x0d, 0x66, 0x00, 0xcf, 0x08, 0x00,
   0x00, 0x00, 0x00, 0x00, 0x00, 0x00, 0x00, 0x00, 0x00, 0x00, 0x00, 0x00,
   0x00, 0x00, 0x00, 0x00, 0x00, 0x00, 0x00, 0x00, 0x00, 0x00, 0x00, 0x00,
   0x00, 0x00, 0x00, 0x00, 0x00, 0x00, 0x00, 0x00};
