M48
;FILE_FORMAT=2:4
INCH,TZ
;TYPE=PLATED
T01C0.013
T02C0.034
T03C0.038
T04C0.045
T05C0.109
T06C0.122
T07C0.215
%
T01
X+28690Y+28700
X+31300Y+28900
X+34300Y+29200
X+42850Y+27150
X+29940Y+28500
T02
X+42300Y+25700
X+42800Y+27950
X+42300Y+27200
X+41800Y+27950
X+40300Y+25700
X+39300
X+40800Y+27950
X+40300Y+27200
X+39800Y+27950
X+39300Y+27200
X+38800Y+27950
X+37300Y+25700
X+36300
X+37800Y+27950
X+37300Y+27200
X+36800Y+27950
X+36300Y+27200
X+35800Y+27950
X+34300Y+25700
X+33300
X+34800Y+27950
X+34300Y+27200
X+33800Y+27950
X+33300Y+27200
X+32800Y+27950
X+31300Y+25700
X+30300
X+31800Y+27950
X+31300Y+27200
X+30800Y+27950
X+30300Y+27200
X+29800Y+27950
X+28300Y+25700
X+27300
X+28800Y+27950
X+28300Y+27200
X+27800Y+27950
X+27300Y+27200
X+26800Y+27950
X+42800Y+26450
X+41800
X+40800
X+39800
X+38800
X+37800
X+36800
X+35800
X+34800
X+33800
X+32800
X+31800
X+30800
X+29800
X+28800
X+27800
X+26800
X+41300Y+25700
Y+27200
X+38300Y+25700
X+35300
X+32300
X+29300
X+38300Y+27200
X+35300
X+32300
X+29300
X+26300Y+25700
Y+27200
T03
X+62250Y+34250
Y+35250
X+61250Y+34750
X+62250Y+39750
Y+40750
X+61250Y+40250
T04
X+36550Y+43870
X+36010Y+42750
X+37090
X+38710Y+43870
X+39250Y+42750
X+39790Y+43870
X+40330Y+42750
X+41950Y+43870
X+42490Y+42750
X+43030Y+43870
X+37630
X+35470
X+38170Y+42750
X+40870Y+43870
X+41410Y+42750
X+19550Y+43870
X+19010Y+42750
X+20090
X+21710Y+43870
X+22250Y+42750
X+22790Y+43870
X+23330Y+42750
X+24950Y+43870
X+25490Y+42750
X+26030Y+43870
X+20630
X+18470
X+21170Y+42750
X+23870Y+43870
X+24410Y+42750
X+19550Y+36870
X+19010Y+35750
X+20090
X+22250
X+22790Y+36870
X+21710
X+23330Y+35750
X+24950Y+36870
X+25490Y+35750
X+26030Y+36870
X+20630
X+21170Y+35750
X+18470Y+36870
X+23870
X+24410Y+35750
X+36550Y+36870
X+36010Y+35750
X+37090
X+39250
X+39790Y+36870
X+38710
X+40330Y+35750
X+41950Y+36870
X+42490Y+35750
X+43030Y+36870
X+37630
X+38170Y+35750
X+35470Y+36870
X+40870
X+41410Y+35750
X+52620Y+42630
X+53710
X+55890
X+52070Y+43750
X+53160
X+55340
X+56430
X+54800Y+42630
X+54250Y+43750
X+52620Y+35630
X+53710
X+55890
X+52070Y+36750
X+53160
X+55340
X+56430
X+54800Y+35630
X+54250Y+36750
T05
X+45950Y+26450
X+23150
T06
X+45810Y+43310
X+32690
X+28810
X+15690
X+28810Y+36310
X+15690
X+45810
X+32690
X+59170Y+43190
X+49330
X+59170Y+36190
X+49330
T07
X+45000Y+31200
X+31500Y+48000
X+44500
X+14500Y+27000
Y+48000
X+62500Y+27000
Y+48000
T00
M30